<svg width="147" height="182" viewBox="0 0 147 182" fill="none" xmlns="http://www.w3.org/2000/svg">
<path id="Vector" d="M-12.1626 3.01735L7.26133 5.93095C28.7016 9.80893 48.0175 21.3065 61.6484 38.3042C65.399 42.7977 68.655 47.6819 71.3604 52.8722C78.5509 67.9837 82.6246 84.3885 83.3385 101.108L-nan -nanL83.3385 101.108C83.7123 111.495 85.2323 121.81 87.8708 131.863C90.248 141.895 95.6769 150.943 103.41 157.762C108.596 161.829 114 165.611 119.597 169.092L125.747 173.301C131.828 177.294 137.221 182.239 141.722 187.943C142.106 188.43 142.905 190.783 142.905 191.404C142.905 191.759 142.617 192.077 142.261 192.077H114.417H108.59H104.705C103.331 191.886 101.944 191.811 100.56 191.853C98.7872 191.906 97.0029 192.018 95.239 192.207C88.7972 192.899 82.5082 195.315 76.0295 195.315H-4.87865C-10.5106 195.315 -15.0762 190.749 -15.0762 185.117V176.862C-15.0762 175.789 -14.2066 174.919 -13.1338 174.919C-10.6621 175.238 -8.15972 175.238 -5.68798 174.919H6.61386H19.4504C22.9706 174.919 26.4907 174.615 29.9168 173.807C36.6541 172.216 43.259 170.099 49.6703 167.474C53.2575 166.168 56.4503 163.965 58.9439 161.075C61.4376 158.184 63.1489 154.703 63.9145 150.963C65.8764 141.595 66.8529 132.046 66.8281 122.475C67.4757 113.206 67.4757 103.903 66.8281 94.6337C66.3954 81.4504 63.0804 68.5219 57.1162 56.757C50.5595 42.9599 38.9787 32.1897 24.7429 26.6499C17.6467 24.3085 10.1988 23.2132 2.72907 23.4125H-11.8389C-13.6268 23.4125 -15.0762 21.9631 -15.0762 20.1752V3.66483M-13.997 2.76545C-14.6615 3.31919 -15.5804 3.40189 -16.4452 3.38233C-17.4009 3.36072 -17.9898 4.29053 -17.9898 5.24649V23.046C-17.9898 24.0521 -17.3773 25.0312 -16.3712 25.0312C-15.2744 25.0312 -14.1878 24.7074 -13.091 24.7074H3.0528C10.3106 24.5103 17.5455 25.6065 24.4192 27.9448C38.6466 33.1548 50.2676 43.7299 56.7924 57.4044C62.9517 68.8624 66.2816 81.6271 66.5044 94.6337C67.152 103.903 67.152 113.206 66.5044 122.475C66.4975 131.938 65.5212 141.375 63.5908 150.639C63.0061 154.194 61.4602 157.521 59.1207 160.26C56.7812 162.998 53.737 165.045 50.3178 166.179C41.8936 168.76 33.2064 170.389 24.4192 171.035H6.29013H-2.77439C-5.24678 171.343 -7.74785 171.343 -10.2202 171.035L-nan -nanL-10.2202 171.035C-10.8553 170.99 -11.4905 171.117 -12.0599 171.402C-13.1682 171.956 -13.4576 173.312 -13.4576 174.552V188.212C-13.4576 190.937 -15.5343 194.667 -12.8101 194.667H76.7014C82.9506 194.667 89.0084 192.34 95.2127 191.593C96.9925 191.378 98.7943 191.231 100.586 191.183C101.854 191.149 103.125 191.231 104.381 191.43C106.001 191.778 107.602 192.203 109.179 192.701C112.699 193.813 116.322 194.667 120.014 194.667H143.373C145.26 194.667 146.79 192.988 146.79 191.101C146.79 190.376 146.562 189.818 146.125 189.24C141.53 183.161 135.957 177.884 129.632 173.624C121.863 168.445 114.093 163.912 106.971 158.085C99.5407 151.39 94.343 142.576 92.0793 132.834C89.4046 122.228 87.7782 111.385 87.2233 100.461C86.545 83.736 82.4696 67.3241 75.2452 52.2247C72.4697 46.8998 69.1033 41.9044 65.2095 37.333C51.2982 20.1798 31.6219 8.67322 9.85119 4.95976L-8.97351 0.905199C-10.3734 0.603674 -11.8342 0.96317 -12.9344 1.87994L-13.997 2.76545Z" fill="white" fill-opacity="0.2"/>
</svg>
